<svg width="200" height="176" viewBox="0 0 200 176" fill="none" xmlns="http://www.w3.org/2000/svg">
<g clip-path="url(#clip0_1367_1456)">
<path d="M1.5196 126.846C1.5196 126.264 1.53226 125.833 1.55759 125.555C1.60824 125.251 1.73488 124.909 1.93749 124.529C2.29206 123.845 3.2798 123.503 4.90071 123.503C6.67358 123.503 7.72463 123.972 8.05388 124.909C8.18051 125.339 8.24383 125.998 8.24383 126.884V148.007C8.24383 148.615 8.2185 149.058 8.16785 149.337C8.14252 149.615 8.02855 149.944 7.82594 150.324C7.47137 151.008 6.48363 151.35 4.86272 151.35C3.08985 151.35 2.05146 150.869 1.74754 149.906C1.59558 149.501 1.5196 148.855 1.5196 147.969V126.846ZM13.1003 123.465H34.2228C35.0332 123.465 35.6284 123.567 36.0083 123.769C36.3882 123.947 36.6415 124.238 36.7681 124.643C36.8947 125.048 36.958 125.58 36.958 126.239C36.958 126.897 36.8947 127.429 36.7681 127.834C36.6415 128.214 36.4262 128.48 36.1223 128.632C35.6664 128.86 35.0206 128.974 34.1848 128.974H26.9287V148.083C26.9287 148.665 26.9034 149.096 26.8527 149.374C26.8274 149.653 26.7134 149.982 26.5108 150.362C26.3335 150.717 26.0043 150.97 25.523 151.122C25.0418 151.274 24.4087 151.35 23.6235 151.35C22.8384 151.35 22.2053 151.274 21.724 151.122C21.2682 150.97 20.9389 150.717 20.7363 150.362C20.559 149.982 20.4451 149.653 20.3944 149.374C20.3691 149.071 20.3564 148.627 20.3564 148.045V128.974H13.0623C12.2519 128.974 11.6567 128.885 11.2768 128.708C10.8969 128.505 10.6436 128.201 10.517 127.796C10.3904 127.391 10.327 126.859 10.327 126.201C10.327 125.542 10.3904 125.023 10.517 124.643C10.6436 124.238 10.8589 123.959 11.1628 123.807C11.6187 123.579 12.2645 123.465 13.1003 123.465ZM55.3974 145.727H65.7307C66.5665 145.727 67.1743 145.829 67.5542 146.031C67.9341 146.209 68.1874 146.5 68.314 146.905C68.4407 147.31 68.504 147.855 68.504 148.539C68.504 149.197 68.4407 149.729 68.314 150.134C68.1874 150.54 67.9721 150.818 67.6682 150.97C67.187 151.223 66.5285 151.35 65.6927 151.35H52.0163C50.2435 151.35 49.2051 150.869 48.9011 149.906C48.7492 149.501 48.6732 148.855 48.6732 147.969V126.846C48.6732 126.264 48.6859 125.833 48.7112 125.555C48.7618 125.251 48.8885 124.909 49.0911 124.529C49.4457 123.845 50.4334 123.503 52.0543 123.503C53.8272 123.503 54.8782 123.972 55.2075 124.909C55.3341 125.339 55.3974 125.998 55.3974 126.884V145.727ZM77.6943 144.626H89.3952C89.9777 144.626 90.4083 144.651 90.6869 144.702C90.9908 144.727 91.3327 144.841 91.7126 145.044C92.3964 145.398 92.7383 146.386 92.7383 148.007C92.7383 149.78 92.2698 150.818 91.3327 151.122C90.9022 151.274 90.2437 151.35 89.3572 151.35H74.3132C72.5403 151.35 71.5019 150.869 71.198 149.906C71.0461 149.501 70.9701 148.855 70.9701 147.969V126.846C70.9701 125.555 71.2107 124.681 71.6919 124.225C72.1731 123.744 73.0848 123.503 74.4272 123.503H89.3952C89.9777 123.503 90.4083 123.529 90.6869 123.579C90.9908 123.605 91.3327 123.719 91.7126 123.921C92.3964 124.276 92.7383 125.264 92.7383 126.884C92.7383 128.657 92.2698 129.696 91.3327 130C90.9022 130.152 90.2437 130.228 89.3572 130.228H77.6943V134.065H85.2163C85.7988 134.065 86.2294 134.09 86.508 134.141C86.8119 134.166 87.1538 134.28 87.5337 134.482C88.2175 134.837 88.5594 135.825 88.5594 137.446C88.5594 139.219 88.0782 140.257 87.1158 140.561C86.6853 140.713 86.0268 140.789 85.1403 140.789H77.6943V144.626ZM109.708 134.558H116.395C117.762 134.609 118.598 134.964 118.902 135.622C119.155 136.103 119.282 136.812 119.282 137.75V146.107C119.282 146.918 118.927 147.69 118.218 148.425C116.091 150.628 112.899 151.73 108.645 151.73C104.871 151.73 101.591 150.312 98.8052 147.475C96.0192 144.613 94.6263 141.169 94.6263 137.142C94.6263 133.115 96.0446 129.759 98.8811 127.074C101.718 124.364 105.061 123.009 108.911 123.009C111.899 123.009 114.723 123.997 117.382 125.973C118.066 126.479 118.408 127.049 118.408 127.682C118.408 128.29 118.117 128.999 117.534 129.81C116.546 131.152 115.647 131.823 114.837 131.823C114.356 131.823 113.583 131.481 112.52 130.797C111.456 130.088 110.19 129.734 108.721 129.734C106.796 129.734 105.086 130.417 103.592 131.785C102.098 133.127 101.35 134.9 101.35 137.104C101.35 139.282 102.11 141.143 103.63 142.688C105.149 144.208 106.872 144.968 108.797 144.968C110.19 144.968 111.443 144.74 112.558 144.284V140.143H109.556C108.771 140.143 108.214 140.042 107.885 139.839C107.556 139.636 107.34 139.345 107.239 138.965C107.138 138.56 107.087 138.028 107.087 137.37C107.087 136.686 107.138 136.141 107.239 135.736C107.366 135.331 107.581 135.052 107.885 134.9C108.341 134.672 108.948 134.558 109.708 134.558ZM129.04 144.626H140.741C141.324 144.626 141.754 144.651 142.033 144.702C142.337 144.727 142.679 144.841 143.058 145.044C143.742 145.398 144.084 146.386 144.084 148.007C144.084 149.78 143.616 150.818 142.679 151.122C142.248 151.274 141.59 151.35 140.703 151.35H125.659C123.886 151.35 122.848 150.869 122.544 149.906C122.392 149.501 122.316 148.855 122.316 147.969V126.846C122.316 125.555 122.557 124.681 123.038 124.225C123.519 123.744 124.431 123.503 125.773 123.503H140.741C141.324 123.503 141.754 123.529 142.033 123.579C142.337 123.605 142.679 123.719 143.058 123.921C143.742 124.276 144.084 125.264 144.084 126.884C144.084 128.657 143.616 129.696 142.679 130C142.248 130.152 141.59 130.228 140.703 130.228H129.04V134.065H136.562C137.145 134.065 137.575 134.09 137.854 134.141C138.158 134.166 138.5 134.28 138.88 134.482C139.563 134.837 139.905 135.825 139.905 137.446C139.905 139.219 139.424 140.257 138.462 140.561C138.031 140.713 137.373 140.789 136.486 140.789H129.04V144.626ZM164.511 124.681C164.765 124.225 165.132 123.921 165.613 123.769C166.094 123.617 166.689 123.541 167.398 123.541C168.133 123.541 168.715 123.605 169.146 123.731C169.602 123.858 169.931 124.01 170.134 124.187C170.362 124.364 170.526 124.63 170.628 124.985C170.78 125.39 170.856 126.036 170.856 126.922V148.007C170.856 148.615 170.83 149.058 170.78 149.337C170.754 149.615 170.64 149.944 170.438 150.324C170.083 151.008 169.095 151.35 167.474 151.35C166.487 151.35 165.803 151.274 165.423 151.122C165.043 150.97 164.727 150.729 164.473 150.4C158.775 142.802 155.026 137.838 153.228 135.508V148.007C153.228 148.615 153.203 149.058 153.152 149.337C153.127 149.615 153.013 149.944 152.81 150.324C152.456 151.008 151.468 151.35 149.847 151.35C148.277 151.35 147.314 151.008 146.96 150.324C146.757 149.944 146.631 149.602 146.58 149.299C146.555 148.995 146.542 148.551 146.542 147.969V126.77C146.542 125.808 146.656 125.112 146.884 124.681C147.137 124.225 147.504 123.921 147.986 123.769C148.467 123.617 149.087 123.541 149.847 123.541C150.607 123.541 151.202 123.617 151.633 123.769C152.089 123.896 152.405 124.048 152.582 124.225C152.684 124.301 152.975 124.63 153.456 125.213C158.8 132.482 162.371 137.281 164.169 139.611V126.77C164.169 125.808 164.283 125.112 164.511 124.681ZM177.266 123.465L184.294 123.503C187.966 123.503 191.195 124.833 193.981 127.492C196.767 130.126 198.16 133.381 198.16 137.256C198.16 141.105 196.792 144.41 194.057 147.171C191.347 149.932 188.055 151.312 184.18 151.312H177.228C175.683 151.312 174.72 150.995 174.34 150.362C174.036 149.83 173.884 149.02 173.884 147.931V126.808C173.884 126.201 173.897 125.757 173.922 125.479C173.973 125.2 174.1 124.871 174.302 124.491C174.657 123.807 175.645 123.465 177.266 123.465ZM184.294 144.588C186.117 144.588 187.763 143.917 189.232 142.574C190.701 141.207 191.436 139.497 191.436 137.446C191.436 135.394 190.714 133.685 189.27 132.317C187.852 130.924 186.18 130.228 184.256 130.228H180.609V144.588H184.294Z" fill="#222D5D"/>
<path d="M9.96055 158.572C10.2059 158.572 10.3872 158.583 10.5045 158.604C10.6325 158.615 10.7712 158.663 10.9205 158.748C11.0805 158.833 11.1925 158.977 11.2565 159.18C11.3205 159.383 11.3525 159.655 11.3525 159.996C11.3525 160.337 11.3205 160.609 11.2565 160.812C11.1925 161.015 11.0805 161.159 10.9205 161.244C10.7605 161.319 10.6165 161.367 10.4885 161.388C10.3712 161.399 10.1845 161.404 9.92855 161.404H5.03255V163.02H8.18455C8.44055 163.02 8.62721 163.031 8.74455 163.052C8.87255 163.063 9.01655 163.111 9.17655 163.196C9.45388 163.356 9.59255 163.777 9.59255 164.46C9.59255 165.207 9.38988 165.649 8.98455 165.788C8.81388 165.841 8.54188 165.868 8.16855 165.868H5.03255V168.892C5.03255 169.148 5.02188 169.335 5.00055 169.452C4.98988 169.569 4.94188 169.708 4.85655 169.868C4.70721 170.156 4.29121 170.3 3.60855 170.3C2.86188 170.3 2.42455 170.097 2.29655 169.692C2.23255 169.521 2.20055 169.249 2.20055 168.876V159.98C2.20055 159.436 2.30188 159.068 2.50455 158.876C2.70721 158.673 3.09121 158.572 3.65655 158.572H9.96055ZM10.7105 166.092C10.7105 164.812 11.1585 163.756 12.0545 162.924C12.9505 162.092 13.9745 161.676 15.1265 161.676C16.2785 161.676 17.2972 162.092 18.1825 162.924C19.0679 163.745 19.5105 164.796 19.5105 166.076C19.5105 166.961 19.2812 167.751 18.8225 168.444C18.3639 169.127 17.8039 169.633 17.1425 169.964C16.4919 170.284 15.8145 170.444 15.1105 170.444C14.4065 170.444 13.7239 170.273 13.0625 169.932C12.4012 169.58 11.8412 169.068 11.3825 168.396C10.9345 167.713 10.7105 166.945 10.7105 166.092ZM14.0545 167.244C14.3959 167.5 14.7425 167.628 15.0945 167.628C15.4465 167.628 15.7985 167.495 16.1505 167.228C16.5025 166.961 16.6785 166.567 16.6785 166.044C16.6785 165.521 16.5132 165.132 16.1825 164.876C15.8519 164.62 15.4945 164.492 15.1105 164.492C14.7265 164.492 14.3692 164.625 14.0385 164.892C13.7079 165.159 13.5425 165.553 13.5425 166.076C13.5425 166.588 13.7132 166.977 14.0545 167.244ZM26.2723 161.964C26.475 162.028 26.6403 162.14 26.7683 162.3C26.907 162.449 26.9763 162.695 26.9763 163.036C26.9763 163.377 26.875 163.751 26.6723 164.156C26.4696 164.561 26.1763 164.764 25.7923 164.764C25.6003 164.764 25.4136 164.721 25.2323 164.636C25.0616 164.551 24.8323 164.508 24.5443 164.508C24.2563 164.508 23.9843 164.609 23.7283 164.812C23.483 165.015 23.3603 165.26 23.3603 165.548V168.908C23.3603 169.153 23.3496 169.34 23.3283 169.468C23.3176 169.585 23.2696 169.724 23.1843 169.884C23.0243 170.161 22.6083 170.3 21.9363 170.3C21.4243 170.3 21.0563 170.209 20.8323 170.028C20.6616 169.879 20.5656 169.649 20.5443 169.34C20.5443 169.233 20.5443 169.079 20.5443 168.876V163.26C20.5443 163.015 20.5496 162.833 20.5603 162.716C20.5816 162.588 20.6296 162.449 20.7043 162.3C20.8536 162.012 21.2696 161.868 21.9523 161.868C22.5923 161.868 22.9923 161.991 23.1523 162.236C23.2696 162.407 23.3283 162.583 23.3283 162.764C23.3816 162.689 23.4563 162.599 23.5523 162.492C23.659 162.385 23.8776 162.241 24.2083 162.06C24.539 161.879 24.827 161.788 25.0723 161.788C25.3283 161.788 25.5416 161.804 25.7123 161.836C25.883 161.857 26.0696 161.9 26.2723 161.964ZM37.3757 162.764C37.4397 162.167 37.861 161.868 38.6397 161.868C39.0557 161.868 39.365 161.9 39.5677 161.964C39.7703 162.028 39.909 162.14 39.9837 162.3C40.069 162.46 40.117 162.604 40.1277 162.732C40.149 162.849 40.1597 163.031 40.1597 163.276V168.876C40.1597 169.121 40.149 169.308 40.1277 169.436C40.117 169.553 40.0743 169.692 39.9997 169.852C39.8503 170.129 39.4823 170.268 38.8957 170.268C38.3197 170.268 37.9303 170.199 37.7277 170.06C37.5357 169.911 37.4237 169.697 37.3917 169.42C36.997 169.985 36.3357 170.268 35.4077 170.268C34.4903 170.268 33.637 169.847 32.8477 169.004C32.0583 168.161 31.6637 167.185 31.6637 166.076C31.6637 164.956 32.0583 163.98 32.8477 163.148C33.6477 162.305 34.5223 161.884 35.4717 161.884C35.8343 161.884 36.165 161.948 36.4637 162.076C36.7623 162.204 36.9703 162.327 37.0877 162.444C37.205 162.551 37.301 162.657 37.3757 162.764ZM34.4637 166.092C34.4637 166.444 34.6023 166.764 34.8797 167.052C35.157 167.329 35.493 167.468 35.8877 167.468C36.2823 167.468 36.6077 167.324 36.8637 167.036C37.1303 166.748 37.2637 166.433 37.2637 166.092C37.2637 165.74 37.1357 165.415 36.8797 165.116C36.6343 164.817 36.2983 164.668 35.8717 164.668C35.4557 164.668 35.1143 164.817 34.8477 165.116C34.5917 165.415 34.4637 165.74 34.4637 166.092ZM46.1229 161.868C47.1896 161.868 48.0749 162.279 48.7789 163.1C49.4936 163.911 49.8509 164.903 49.8509 166.076V168.892C49.8509 169.137 49.8403 169.324 49.8189 169.452C49.8083 169.569 49.7656 169.703 49.6909 169.852C49.5416 170.14 49.1256 170.284 48.4429 170.284C47.6856 170.284 47.2483 170.087 47.1309 169.692C47.0669 169.511 47.0349 169.239 47.0349 168.876V166.06C47.0349 165.623 46.9069 165.281 46.6509 165.036C46.4056 164.791 46.0696 164.668 45.6429 164.668C45.2269 164.668 44.8856 164.796 44.6189 165.052C44.3629 165.308 44.2349 165.644 44.2349 166.06V168.892C44.2349 169.137 44.2243 169.324 44.2029 169.452C44.1923 169.569 44.1443 169.703 44.0589 169.852C43.9203 170.14 43.5096 170.284 42.8269 170.284C42.1549 170.284 41.7443 170.14 41.5949 169.852C41.5203 169.692 41.4723 169.553 41.4509 169.436C41.4403 169.308 41.4349 169.121 41.4349 168.876V163.212C41.4349 162.977 41.4403 162.801 41.4509 162.684C41.4723 162.556 41.5256 162.417 41.6109 162.268C41.7603 162.001 42.1709 161.868 42.8429 161.868C43.4936 161.868 43.8936 161.991 44.0429 162.236C44.1496 162.417 44.2029 162.636 44.2029 162.892C44.2456 162.817 44.3416 162.711 44.4909 162.572C44.6403 162.433 44.7843 162.321 44.9229 162.236C45.2856 161.991 45.6856 161.868 46.1229 161.868ZM63.3129 165.084C63.3129 165.735 63.1476 166.22 62.8169 166.54C62.4969 166.849 62.1396 167.004 61.7449 167.004H57.9529C57.9529 167.303 58.1289 167.553 58.4809 167.756C58.8329 167.959 59.1849 168.06 59.5369 168.06C60.1556 168.06 60.6409 167.996 60.9929 167.868L61.1689 167.804C61.4249 167.687 61.6383 167.628 61.8089 167.628C62.1503 167.628 62.4436 167.868 62.6889 168.348C62.8276 168.636 62.8969 168.881 62.8969 169.084C62.8969 170.033 61.7609 170.508 59.4889 170.508C58.6996 170.508 57.9956 170.375 57.3769 170.108C56.7689 169.831 56.2943 169.468 55.9529 169.02C55.2809 168.156 54.9449 167.191 54.9449 166.124C54.9449 164.78 55.3769 163.708 56.2409 162.908C57.1156 162.097 58.2036 161.692 59.5049 161.692C60.9876 161.692 62.0756 162.215 62.7689 163.26C63.1316 163.815 63.3129 164.423 63.3129 165.084ZM59.9369 165.548C60.3423 165.548 60.5449 165.377 60.5449 165.036C60.5449 164.791 60.4489 164.593 60.2569 164.444C60.0756 164.295 59.8089 164.22 59.4569 164.22C59.1156 164.22 58.7743 164.364 58.4329 164.652C58.0916 164.929 57.9209 165.228 57.9209 165.548H59.9369ZM70.1968 166.076L71.9728 167.868C72.3568 168.252 72.5488 168.583 72.5488 168.86C72.5488 169.127 72.3568 169.452 71.9728 169.836C71.5888 170.209 71.2635 170.396 70.9968 170.396C70.7301 170.396 70.4048 170.204 70.0208 169.82L68.2608 168.044L66.4848 169.82C66.1008 170.204 65.7755 170.396 65.5088 170.396C65.2528 170.396 64.9275 170.209 64.5328 169.836C64.1488 169.452 63.9568 169.127 63.9568 168.86C63.9568 168.583 64.1488 168.252 64.5328 167.868L66.3088 166.076L64.5328 164.284C64.1488 163.9 63.9568 163.575 63.9568 163.308C63.9568 163.031 64.1488 162.7 64.5328 162.316C64.9275 161.932 65.2528 161.74 65.5088 161.74C65.7755 161.74 66.1008 161.932 66.4848 162.316L68.2608 164.108L70.0208 162.316C70.4048 161.932 70.7301 161.74 70.9968 161.74C71.2635 161.74 71.5888 161.932 71.9728 162.316C72.3568 162.7 72.5488 163.031 72.5488 163.308C72.5488 163.575 72.3568 163.9 71.9728 164.284L70.1968 166.076ZM75.7624 166.092C75.7624 166.54 75.9118 166.892 76.2104 167.148C76.5091 167.393 76.8238 167.516 77.1544 167.516C77.4958 167.516 77.8104 167.42 78.0984 167.228C78.3971 167.025 78.6371 166.924 78.8184 166.924C79.1384 166.924 79.5278 167.207 79.9864 167.772C80.2318 168.081 80.3544 168.359 80.3544 168.604C80.3544 169.009 80.0611 169.388 79.4744 169.74C78.8664 170.167 78.1198 170.38 77.2344 170.38C76.2424 170.38 75.2878 170.023 74.3704 169.308C73.9331 168.967 73.5758 168.513 73.2984 167.948C73.0211 167.372 72.8824 166.743 72.8824 166.06C72.8824 165.367 73.0211 164.743 73.2984 164.188C73.5758 163.623 73.9331 163.169 74.3704 162.828C75.2558 162.124 76.1998 161.772 77.2024 161.772C77.6078 161.772 78.0024 161.831 78.3864 161.948C78.7704 162.055 79.0531 162.161 79.2344 162.268L79.4904 162.428C79.6824 162.556 79.8318 162.657 79.9384 162.732C80.2158 162.945 80.3544 163.191 80.3544 163.468C80.3544 163.735 80.2424 164.039 80.0184 164.38C79.6344 164.967 79.2664 165.26 78.9144 165.26C78.7118 165.26 78.4238 165.143 78.0504 164.908C77.8584 164.727 77.5811 164.636 77.2184 164.636C76.8664 164.636 76.5358 164.764 76.2264 165.02C75.9171 165.276 75.7624 165.633 75.7624 166.092ZM89.2817 165.084C89.2817 165.735 89.1163 166.22 88.7857 166.54C88.4657 166.849 88.1083 167.004 87.7137 167.004H83.9217C83.9217 167.303 84.0977 167.553 84.4497 167.756C84.8017 167.959 85.1537 168.06 85.5057 168.06C86.1243 168.06 86.6097 167.996 86.9617 167.868L87.1377 167.804C87.3937 167.687 87.607 167.628 87.7777 167.628C88.119 167.628 88.4123 167.868 88.6577 168.348C88.7963 168.636 88.8657 168.881 88.8657 169.084C88.8657 170.033 87.7297 170.508 85.4577 170.508C84.6683 170.508 83.9643 170.375 83.3457 170.108C82.7377 169.831 82.263 169.468 81.9217 169.02C81.2497 168.156 80.9137 167.191 80.9137 166.124C80.9137 164.78 81.3457 163.708 82.2097 162.908C83.0843 162.097 84.1723 161.692 85.4737 161.692C86.9563 161.692 88.0443 162.215 88.7377 163.26C89.1003 163.815 89.2817 164.423 89.2817 165.084ZM85.9057 165.548C86.311 165.548 86.5137 165.377 86.5137 165.036C86.5137 164.791 86.4177 164.593 86.2257 164.444C86.0443 164.295 85.7777 164.22 85.4257 164.22C85.0843 164.22 84.743 164.364 84.4017 164.652C84.0603 164.929 83.8897 165.228 83.8897 165.548H85.9057ZM90.3255 172.588V163.244C90.3255 162.999 90.3309 162.817 90.3415 162.7C90.3629 162.583 90.4109 162.449 90.4855 162.3C90.6349 162.012 90.9922 161.868 91.5575 161.868C92.1229 161.868 92.5015 161.943 92.6935 162.092C92.8962 162.231 93.0135 162.439 93.0455 162.716C93.4509 162.161 94.0855 161.884 94.9495 161.884C95.8242 161.884 96.6509 162.295 97.4295 163.116C98.2082 163.937 98.5975 164.892 98.5975 165.98C98.5975 167.068 98.2082 168.023 97.4295 168.844C96.6615 169.665 95.8402 170.076 94.9655 170.076C94.0909 170.076 93.4562 169.831 93.0615 169.34V172.572C93.0615 172.817 93.0509 172.999 93.0295 173.116C93.0189 173.233 92.9709 173.367 92.8855 173.516C92.8109 173.676 92.6775 173.788 92.4855 173.852C92.2935 173.916 92.0322 173.948 91.7015 173.948C91.3709 173.948 91.1042 173.916 90.9015 173.852C90.7095 173.788 90.5709 173.681 90.4855 173.532C90.4109 173.383 90.3629 173.249 90.3415 173.132C90.3309 173.015 90.3255 172.833 90.3255 172.588ZM93.4935 165.052C93.2482 165.34 93.1255 165.655 93.1255 165.996C93.1255 166.337 93.2482 166.652 93.4935 166.94C93.7495 167.217 94.0695 167.356 94.4535 167.356C94.8482 167.356 95.1789 167.217 95.4455 166.94C95.7229 166.663 95.8615 166.348 95.8615 165.996C95.8615 165.644 95.7335 165.329 95.4775 165.052C95.2215 164.764 94.8855 164.62 94.4695 164.62C94.0642 164.62 93.7389 164.764 93.4935 165.052ZM104.378 164.7L103.338 164.636V166.844C103.338 167.132 103.38 167.34 103.466 167.468C103.562 167.596 103.732 167.66 103.978 167.66C104.234 167.66 104.426 167.671 104.554 167.692C104.692 167.703 104.836 167.751 104.986 167.836C105.231 167.975 105.354 168.332 105.354 168.908C105.354 169.58 105.204 169.991 104.906 170.14C104.746 170.215 104.602 170.263 104.474 170.284C104.356 170.295 104.18 170.3 103.946 170.3C102.836 170.3 101.994 170.049 101.418 169.548C100.842 169.047 100.554 168.199 100.554 167.004V164.636C100.351 164.668 100.132 164.684 99.8978 164.684C99.6631 164.684 99.4658 164.593 99.3058 164.412C99.1565 164.231 99.0818 163.921 99.0818 163.484C99.0818 163.047 99.1085 162.732 99.1618 162.54C99.2151 162.337 99.2898 162.193 99.3858 162.108C99.5565 161.969 99.7698 161.9 100.026 161.9L100.554 161.964V160.316C100.554 160.071 100.559 159.889 100.57 159.772C100.591 159.655 100.644 159.527 100.73 159.388C100.868 159.121 101.279 158.988 101.962 158.988C102.687 158.988 103.119 159.185 103.258 159.58C103.311 159.751 103.338 160.023 103.338 160.396V161.964C103.807 161.921 104.159 161.9 104.394 161.9C104.639 161.9 104.82 161.911 104.938 161.932C105.066 161.943 105.21 161.991 105.37 162.076C105.647 162.215 105.786 162.625 105.786 163.308C105.786 163.98 105.642 164.391 105.354 164.54C105.194 164.615 105.05 164.663 104.922 164.684C104.804 164.695 104.623 164.7 104.378 164.7ZM106.669 163.276C106.669 163.031 106.675 162.849 106.685 162.732C106.707 162.604 106.755 162.46 106.829 162.3C106.979 162.023 107.395 161.884 108.077 161.884C108.589 161.884 108.952 161.975 109.165 162.156C109.347 162.305 109.443 162.535 109.453 162.844C109.464 162.951 109.469 163.105 109.469 163.308V168.908C109.469 169.153 109.459 169.34 109.437 169.468C109.427 169.585 109.379 169.724 109.293 169.884C109.155 170.161 108.744 170.3 108.061 170.3C107.389 170.3 106.979 170.156 106.829 169.868C106.755 169.708 106.707 169.569 106.685 169.452C106.675 169.335 106.669 169.148 106.669 168.892V163.276ZM109.293 160.316C109.219 160.465 109.08 160.572 108.877 160.636C108.675 160.7 108.403 160.732 108.061 160.732C107.731 160.732 107.464 160.7 107.261 160.636C107.059 160.572 106.915 160.46 106.829 160.3C106.755 160.14 106.707 160.001 106.685 159.884C106.675 159.756 106.669 159.569 106.669 159.324C106.669 159.079 106.675 158.897 106.685 158.78C106.707 158.652 106.755 158.513 106.829 158.364C106.979 158.076 107.395 157.932 108.077 157.932C108.749 157.932 109.155 158.076 109.293 158.364C109.379 158.524 109.427 158.668 109.437 158.796C109.459 158.913 109.469 159.095 109.469 159.34C109.469 159.585 109.459 159.772 109.437 159.9C109.427 160.017 109.379 160.156 109.293 160.316ZM110.507 166.092C110.507 164.812 110.955 163.756 111.851 162.924C112.747 162.092 113.771 161.676 114.923 161.676C116.075 161.676 117.094 162.092 117.979 162.924C118.865 163.745 119.307 164.796 119.307 166.076C119.307 166.961 119.078 167.751 118.619 168.444C118.161 169.127 117.601 169.633 116.939 169.964C116.289 170.284 115.611 170.444 114.907 170.444C114.203 170.444 113.521 170.273 112.859 169.932C112.198 169.58 111.638 169.068 111.179 168.396C110.731 167.713 110.507 166.945 110.507 166.092ZM113.851 167.244C114.193 167.5 114.539 167.628 114.891 167.628C115.243 167.628 115.595 167.495 115.947 167.228C116.299 166.961 116.475 166.567 116.475 166.044C116.475 165.521 116.31 165.132 115.979 164.876C115.649 164.62 115.291 164.492 114.907 164.492C114.523 164.492 114.166 164.625 113.835 164.892C113.505 165.159 113.339 165.553 113.339 166.076C113.339 166.588 113.51 166.977 113.851 167.244ZM125.029 161.868C126.096 161.868 126.981 162.279 127.685 163.1C128.4 163.911 128.757 164.903 128.757 166.076V168.892C128.757 169.137 128.747 169.324 128.725 169.452C128.715 169.569 128.672 169.703 128.597 169.852C128.448 170.14 128.032 170.284 127.349 170.284C126.592 170.284 126.155 170.087 126.037 169.692C125.973 169.511 125.941 169.239 125.941 168.876V166.06C125.941 165.623 125.813 165.281 125.557 165.036C125.312 164.791 124.976 164.668 124.549 164.668C124.133 164.668 123.792 164.796 123.525 165.052C123.269 165.308 123.141 165.644 123.141 166.06V168.892C123.141 169.137 123.131 169.324 123.109 169.452C123.099 169.569 123.051 169.703 122.965 169.852C122.827 170.14 122.416 170.284 121.733 170.284C121.061 170.284 120.651 170.14 120.501 169.852C120.427 169.692 120.379 169.553 120.357 169.436C120.347 169.308 120.341 169.121 120.341 168.876V163.212C120.341 162.977 120.347 162.801 120.357 162.684C120.379 162.556 120.432 162.417 120.517 162.268C120.667 162.001 121.077 161.868 121.749 161.868C122.4 161.868 122.8 161.991 122.949 162.236C123.056 162.417 123.109 162.636 123.109 162.892C123.152 162.817 123.248 162.711 123.397 162.572C123.547 162.433 123.691 162.321 123.829 162.236C124.192 161.991 124.592 161.868 125.029 161.868ZM135.516 162.764C135.58 162.167 136.002 161.868 136.78 161.868C137.196 161.868 137.506 161.9 137.708 161.964C137.911 162.028 138.05 162.14 138.124 162.3C138.21 162.46 138.258 162.604 138.268 162.732C138.29 162.849 138.3 163.031 138.3 163.276V168.876C138.3 169.121 138.29 169.308 138.268 169.436C138.258 169.553 138.215 169.692 138.14 169.852C137.991 170.129 137.623 170.268 137.036 170.268C136.46 170.268 136.071 170.199 135.868 170.06C135.676 169.911 135.564 169.697 135.532 169.42C135.138 169.985 134.476 170.268 133.548 170.268C132.631 170.268 131.778 169.847 130.988 169.004C130.199 168.161 129.804 167.185 129.804 166.076C129.804 164.956 130.199 163.98 130.988 163.148C131.788 162.305 132.663 161.884 133.612 161.884C133.975 161.884 134.306 161.948 134.604 162.076C134.903 162.204 135.111 162.327 135.228 162.444C135.346 162.551 135.442 162.657 135.516 162.764ZM132.604 166.092C132.604 166.444 132.743 166.764 133.02 167.052C133.298 167.329 133.634 167.468 134.028 167.468C134.423 167.468 134.748 167.324 135.004 167.036C135.271 166.748 135.404 166.433 135.404 166.092C135.404 165.74 135.276 165.415 135.02 165.116C134.775 164.817 134.439 164.668 134.012 164.668C133.596 164.668 133.255 164.817 132.988 165.116C132.732 165.415 132.604 165.74 132.604 166.092ZM139.576 159.308C139.576 159.063 139.581 158.881 139.592 158.764C139.613 158.636 139.661 158.492 139.736 158.332C139.885 158.044 140.301 157.9 140.984 157.9C141.634 157.9 142.04 158.044 142.2 158.332C142.285 158.492 142.333 158.636 142.344 158.764C142.365 158.892 142.376 159.079 142.376 159.324V166.732C142.376 167.116 142.408 167.361 142.472 167.468C142.536 167.564 142.674 167.612 142.888 167.612C143.112 167.612 143.261 167.623 143.336 167.644C143.41 167.655 143.501 167.697 143.608 167.772C143.821 167.911 143.928 168.289 143.928 168.908C143.928 169.58 143.821 169.991 143.608 170.14C143.33 170.332 142.669 170.364 141.624 170.236C140.802 170.129 140.269 169.857 140.024 169.42C139.725 168.897 139.576 168.065 139.576 166.924V159.308ZM151.497 166.092C151.497 166.54 151.646 166.892 151.945 167.148C152.243 167.393 152.558 167.516 152.889 167.516C153.23 167.516 153.545 167.42 153.833 167.228C154.131 167.025 154.371 166.924 154.553 166.924C154.873 166.924 155.262 167.207 155.721 167.772C155.966 168.081 156.089 168.359 156.089 168.604C156.089 169.009 155.795 169.388 155.209 169.74C154.601 170.167 153.854 170.38 152.969 170.38C151.977 170.38 151.022 170.023 150.105 169.308C149.667 168.967 149.31 168.513 149.033 167.948C148.755 167.372 148.617 166.743 148.617 166.06C148.617 165.367 148.755 164.743 149.033 164.188C149.31 163.623 149.667 163.169 150.105 162.828C150.99 162.124 151.934 161.772 152.937 161.772C153.342 161.772 153.737 161.831 154.121 161.948C154.505 162.055 154.787 162.161 154.969 162.268L155.225 162.428C155.417 162.556 155.566 162.657 155.673 162.732C155.95 162.945 156.089 163.191 156.089 163.468C156.089 163.735 155.977 164.039 155.753 164.38C155.369 164.967 155.001 165.26 154.649 165.26C154.446 165.26 154.158 165.143 153.785 164.908C153.593 164.727 153.315 164.636 152.953 164.636C152.601 164.636 152.27 164.764 151.961 165.02C151.651 165.276 151.497 165.633 151.497 166.092ZM162.594 162.764C162.658 162.167 163.08 161.868 163.858 161.868C164.274 161.868 164.584 161.9 164.786 161.964C164.989 162.028 165.128 162.14 165.202 162.3C165.288 162.46 165.336 162.604 165.346 162.732C165.368 162.849 165.378 163.031 165.378 163.276V168.876C165.378 169.121 165.368 169.308 165.346 169.436C165.336 169.553 165.293 169.692 165.218 169.852C165.069 170.129 164.701 170.268 164.114 170.268C163.538 170.268 163.149 170.199 162.946 170.06C162.754 169.911 162.642 169.697 162.61 169.42C162.216 169.985 161.554 170.268 160.626 170.268C159.709 170.268 158.856 169.847 158.066 169.004C157.277 168.161 156.882 167.185 156.882 166.076C156.882 164.956 157.277 163.98 158.066 163.148C158.866 162.305 159.741 161.884 160.69 161.884C161.053 161.884 161.384 161.948 161.682 162.076C161.981 162.204 162.189 162.327 162.306 162.444C162.424 162.551 162.52 162.657 162.594 162.764ZM159.682 166.092C159.682 166.444 159.821 166.764 160.098 167.052C160.376 167.329 160.712 167.468 161.106 167.468C161.501 167.468 161.826 167.324 162.082 167.036C162.349 166.748 162.482 166.433 162.482 166.092C162.482 165.74 162.354 165.415 162.098 165.116C161.853 164.817 161.517 164.668 161.09 164.668C160.674 164.668 160.333 164.817 160.066 165.116C159.81 165.415 159.682 165.74 159.682 166.092ZM172.382 161.964C172.584 162.028 172.75 162.14 172.878 162.3C173.016 162.449 173.086 162.695 173.086 163.036C173.086 163.377 172.984 163.751 172.782 164.156C172.579 164.561 172.286 164.764 171.902 164.764C171.71 164.764 171.523 164.721 171.342 164.636C171.171 164.551 170.942 164.508 170.654 164.508C170.366 164.508 170.094 164.609 169.838 164.812C169.592 165.015 169.47 165.26 169.47 165.548V168.908C169.47 169.153 169.459 169.34 169.438 169.468C169.427 169.585 169.379 169.724 169.294 169.884C169.134 170.161 168.718 170.3 168.046 170.3C167.534 170.3 167.166 170.209 166.942 170.028C166.771 169.879 166.675 169.649 166.654 169.34C166.654 169.233 166.654 169.079 166.654 168.876V163.26C166.654 163.015 166.659 162.833 166.67 162.716C166.691 162.588 166.739 162.449 166.814 162.3C166.963 162.012 167.379 161.868 168.062 161.868C168.702 161.868 169.102 161.991 169.262 162.236C169.379 162.407 169.438 162.583 169.438 162.764C169.491 162.689 169.566 162.599 169.662 162.492C169.768 162.385 169.987 162.241 170.318 162.06C170.648 161.879 170.936 161.788 171.182 161.788C171.438 161.788 171.651 161.804 171.822 161.836C171.992 161.857 172.179 161.9 172.382 161.964ZM181.61 165.084C181.61 165.735 181.444 166.22 181.114 166.54C180.794 166.849 180.436 167.004 180.042 167.004H176.25C176.25 167.303 176.426 167.553 176.778 167.756C177.13 167.959 177.482 168.06 177.834 168.06C178.452 168.06 178.938 167.996 179.29 167.868L179.466 167.804C179.722 167.687 179.935 167.628 180.106 167.628C180.447 167.628 180.74 167.868 180.986 168.348C181.124 168.636 181.194 168.881 181.194 169.084C181.194 170.033 180.058 170.508 177.786 170.508C176.996 170.508 176.292 170.375 175.674 170.108C175.066 169.831 174.591 169.468 174.25 169.02C173.578 168.156 173.242 167.191 173.242 166.124C173.242 164.78 173.674 163.708 174.538 162.908C175.412 162.097 176.5 161.692 177.802 161.692C179.284 161.692 180.372 162.215 181.066 163.26C181.428 163.815 181.61 164.423 181.61 165.084ZM178.234 165.548C178.639 165.548 178.842 165.377 178.842 165.036C178.842 164.791 178.746 164.593 178.554 164.444C178.372 164.295 178.106 164.22 177.754 164.22C177.412 164.22 177.071 164.364 176.73 164.652C176.388 164.929 176.218 165.228 176.218 165.548H178.234ZM190.782 165.084C190.782 165.735 190.616 166.22 190.286 166.54C189.966 166.849 189.608 167.004 189.214 167.004H185.422C185.422 167.303 185.598 167.553 185.95 167.756C186.302 167.959 186.654 168.06 187.006 168.06C187.624 168.06 188.11 167.996 188.462 167.868L188.638 167.804C188.894 167.687 189.107 167.628 189.278 167.628C189.619 167.628 189.912 167.868 190.158 168.348C190.296 168.636 190.366 168.881 190.366 169.084C190.366 170.033 189.23 170.508 186.958 170.508C186.168 170.508 185.464 170.375 184.846 170.108C184.238 169.831 183.763 169.468 183.422 169.02C182.75 168.156 182.414 167.191 182.414 166.124C182.414 164.78 182.846 163.708 183.71 162.908C184.584 162.097 185.672 161.692 186.974 161.692C188.456 161.692 189.544 162.215 190.238 163.26C190.6 163.815 190.782 164.423 190.782 165.084ZM187.406 165.548C187.811 165.548 188.014 165.377 188.014 165.036C188.014 164.791 187.918 164.593 187.726 164.444C187.544 164.295 187.278 164.22 186.926 164.22C186.584 164.22 186.243 164.364 185.902 164.652C185.56 164.929 185.39 165.228 185.39 165.548H187.406ZM197.554 161.964C197.756 162.028 197.922 162.14 198.05 162.3C198.188 162.449 198.258 162.695 198.258 163.036C198.258 163.377 198.156 163.751 197.954 164.156C197.751 164.561 197.458 164.764 197.074 164.764C196.882 164.764 196.695 164.721 196.514 164.636C196.343 164.551 196.114 164.508 195.826 164.508C195.538 164.508 195.266 164.609 195.01 164.812C194.764 165.015 194.642 165.26 194.642 165.548V168.908C194.642 169.153 194.631 169.34 194.61 169.468C194.599 169.585 194.551 169.724 194.466 169.884C194.306 170.161 193.89 170.3 193.218 170.3C192.706 170.3 192.338 170.209 192.114 170.028C191.943 169.879 191.847 169.649 191.826 169.34C191.826 169.233 191.826 169.079 191.826 168.876V163.26C191.826 163.015 191.831 162.833 191.842 162.716C191.863 162.588 191.911 162.449 191.986 162.3C192.135 162.012 192.551 161.868 193.234 161.868C193.874 161.868 194.274 161.991 194.434 162.236C194.551 162.407 194.61 162.583 194.61 162.764C194.663 162.689 194.738 162.599 194.834 162.492C194.94 162.385 195.159 162.241 195.49 162.06C195.82 161.879 196.108 161.788 196.354 161.788C196.61 161.788 196.823 161.804 196.994 161.836C197.164 161.857 197.351 161.9 197.554 161.964Z" fill="#EB7236"/>
<path d="M66.4607 87.86C66.4607 86.69 66.4607 85.93 66.4607 85.17C66.4607 84.66 66.3607 84.01 67.0007 83.78C67.6407 83.55 67.9507 84.11 68.3607 84.45C77.4307 91.84 87.3007 98.16 96.7007 105.11C97.3303 105.706 98.1641 106.038 99.0307 106.038C99.8974 106.038 100.731 105.706 101.361 105.11C110.541 98.21 120.291 92.11 129.231 84.89C129.721 84.49 130.231 83.89 130.891 84.12C131.551 84.35 131.471 85.19 131.541 85.81C131.961 89.43 131.361 92.23 127.811 94.58C118.811 100.58 110.091 107.04 101.321 113.39C99.6807 114.59 98.3907 114.68 96.7107 113.46C87.2507 106.567 77.7441 99.7466 68.1908 93C66.0208 91.48 66.5507 89.45 66.4607 87.87" fill="#EB7236"/>
<path d="M113.18 47.49L107.48 41.79C107.125 41.4785 106.791 41.1444 106.48 40.79C106.322 40.6188 106.2 40.4174 106.122 40.198C106.044 39.9785 106.011 39.7456 106.025 39.5131C106.039 39.2805 106.099 39.0532 106.203 38.8448C106.307 38.6363 106.452 38.451 106.63 38.3C106.776 38.1156 106.96 37.9643 107.169 37.856C107.379 37.7478 107.608 37.6849 107.843 37.6717C108.079 37.6585 108.314 37.6952 108.534 37.7793C108.754 37.8635 108.954 37.9932 109.12 38.16C112.25 41.16 115.33 44.34 118.49 47.49C118.272 47.7829 118.039 48.0634 117.79 48.33C115.06 51.07 112.34 53.81 109.6 56.53C108.53 57.58 107.43 57.68 106.6 56.83C105.77 55.98 105.88 54.83 106.91 53.83C108.91 51.77 111 49.73 113.18 47.54" fill="#EB7236"/>
<path d="M84.9309 47.49L90.6409 41.79C90.9929 41.4759 91.3268 41.1421 91.6409 40.79C91.7988 40.6187 91.9205 40.4174 91.9987 40.1979C92.077 39.9785 92.1101 39.7456 92.096 39.513C92.082 39.2805 92.0212 39.0532 91.9172 38.8448C91.8132 38.6363 91.6682 38.451 91.4909 38.3C91.3481 38.1122 91.1671 37.9567 90.9598 37.8439C90.7526 37.7311 90.5238 37.6635 90.2885 37.6456C90.0533 37.6276 89.8169 37.6597 89.5949 37.7398C89.373 37.8198 89.1705 37.946 89.0009 38.11C85.8709 41.11 82.7909 44.29 79.6309 47.44C79.8482 47.7329 80.0819 48.0134 80.3309 48.28C83.0509 51.02 85.7809 53.7533 88.5209 56.48C89.5809 57.53 90.6909 57.63 91.5209 56.78C92.3509 55.93 92.2409 54.78 91.2109 53.78C89.2109 51.72 87.1209 49.68 84.9309 47.49Z" fill="#EB7236"/>
<path d="M96.9109 56.17L97.6509 56.38C97.8 56.4228 97.956 56.4357 98.1101 56.4182C98.2641 56.4006 98.4132 56.3528 98.5488 56.2776C98.6844 56.2024 98.8038 56.1012 98.9003 55.9797C98.9967 55.8583 99.0683 55.7191 99.1109 55.57L103.491 40.25C103.574 39.9477 103.535 39.6248 103.381 39.3514C103.228 39.078 102.972 38.8762 102.671 38.79L101.941 38.58C101.792 38.5372 101.636 38.5243 101.482 38.5418C101.328 38.5594 101.179 38.6072 101.043 38.6824C100.907 38.7576 100.788 38.8588 100.692 38.9803C100.595 39.1017 100.524 39.2409 100.481 39.39L96.1009 54.71C96.0568 54.859 96.0428 55.0154 96.0597 55.1699C96.0767 55.3244 96.1242 55.474 96.1996 55.6099C96.2751 55.7458 96.3768 55.8654 96.4989 55.9615C96.621 56.0577 96.7611 56.1286 96.9109 56.17Z" fill="#EB7236"/>
<path d="M136.1 50.34C133.68 48.6448 131.971 46.1168 131.3 43.24C131.227 42.9298 131.17 42.6161 131.13 42.3C131.13 42.2 131.13 42.09 131.13 41.99C131.13 41.66 131.07 41.31 131.05 40.99C131.05 40.2 131.26 35.64 131.26 35.64C131.9 30.37 127.82 24.73 121.06 24.1L117.95 29.17L118.09 29.23C119.28 29.74 121.2 30.61 122.78 31.47C123.137 31.6707 123.473 31.9087 123.78 32.18C124.62 33.1 124.71 34.72 124.71 37.75C124.71 38.19 124.71 38.62 124.71 39.05C124.71 39.48 124.71 39.99 124.71 40.45V40.53C124.71 40.99 124.71 41.45 124.71 41.91V42C124.71 42.46 124.71 42.92 124.78 43.38C124.78 43.85 124.87 44.31 124.94 44.77C125.241 47.0971 126.175 49.297 127.64 51.13C127.823 51.3169 127.926 51.5682 127.926 51.83C127.926 52.0917 127.823 52.3431 127.64 52.53C124.86 55.89 124.64 59.77 124.64 63.71V65.52C124.705 67.8147 124.189 70.0888 123.14 72.1308C122.091 74.1728 120.543 75.9165 118.64 77.2C112.79 81.46 106.88 85.67 101 90C99.4999 91.1 98.2999 91.32 96.6699 90.11C90.6699 85.67 84.5198 81.38 78.4499 77.01C77.5533 76.3556 76.7317 75.6044 75.9999 74.77C75.1141 73.8034 74.4337 72.6672 73.9999 71.43L73.7899 71C73.1813 69.0608 72.914 67.0306 72.9999 65C72.9999 64.63 72.9999 64.29 72.9999 64C73.0599 61.74 72.9999 56.45 71.1099 53.59C70.8977 53.2671 70.6673 52.9566 70.4199 52.66C70.2366 52.4731 70.134 52.2217 70.134 51.96C70.134 51.6982 70.2366 51.4469 70.4199 51.26C73.3299 47.69 73.4799 43.46 73.3199 39.15C73.3199 38.72 73.3199 38.29 73.3199 37.85C73.3199 34.85 73.4099 33.24 74.2199 32.31C74.5254 32.0308 74.8608 31.786 75.2199 31.58C76.8099 30.71 78.7899 29.82 79.9799 29.3L76.8398 24.18C70.1698 24.89 66.1598 30.49 66.8398 35.71C66.8551 35.9331 66.8551 36.1569 66.8398 36.38C67.0178 37.9136 67.108 39.4561 67.1099 41C67.048 42.848 66.5535 44.6557 65.666 46.2779C64.7785 47.9 63.5228 49.2914 61.9999 50.34C60.6499 51.34 60.5799 52.41 61.9999 53.43C64.1219 54.8927 65.6895 57.0274 66.4499 59.49C66.5934 61.5408 66.5934 63.5992 66.4499 65.65C65.7899 72.71 69.2199 78.52 74.9299 82.65C82.0299 87.83 89.2599 92.82 96.3399 98.02C98.1599 99.35 99.4599 99.24 101.23 97.95C108.14 92.89 115.15 87.95 122.13 83C125.175 80.9285 127.648 78.1218 129.32 74.84C130.68 71.46 130.97 66.65 131.03 64.4C131.03 63.99 131.03 63.59 131.03 63.2V63.14C131.023 61.2281 131.479 59.343 132.359 57.6454C133.238 55.9477 134.515 54.4878 136.08 53.39C137.49 52.39 137.42 51.32 136.08 50.3" fill="#222D5D"/>
<path d="M127.36 4.82999C125.36 5.68999 123.57 6.51999 122.47 7.03999L117 9.30999C116.732 9.4207 116.503 9.60976 116.345 9.85242C116.186 10.0951 116.104 10.38 116.11 10.67C116.11 10.67 116.11 10.73 116.11 10.83C116.104 10.8461 116.104 10.8639 116.11 10.88C116.244 12.0586 116.054 13.2514 115.56 14.33C114.74 15.74 114.11 17.08 110.75 17.59C108 18 105.79 16 104.9 14.23L104.84 14.07C104.582 13.2794 104.457 12.4515 104.47 11.62C104.479 11.1922 104.532 10.7666 104.63 10.35C104.63 10.25 104.68 10.14 104.71 10.04C104.74 9.93999 104.78 9.83999 104.81 9.73999C104.824 9.68775 104.844 9.63739 104.87 9.58999C104.874 9.56351 104.874 9.53647 104.87 9.50999C104.87 9.39999 104.97 9.27999 105.03 9.16999C105.09 9.05999 105.12 8.97999 105.18 8.87999C105.24 8.77999 105.29 8.67999 105.36 8.57999C105.481 8.38474 105.614 8.19767 105.76 8.01999C105.974 7.75263 106.215 7.50801 106.48 7.28999C106.703 7.56346 106.991 7.7761 107.318 7.90811C107.645 8.04011 108 8.08719 108.35 8.04495C108.701 8.00271 109.034 7.87253 109.321 7.66654C109.607 7.46054 109.837 7.18543 109.988 6.86683C110.139 6.54823 110.208 6.19651 110.186 5.84442C110.165 5.49234 110.055 5.15134 109.867 4.8532C109.678 4.55505 109.417 4.30946 109.108 4.13929C108.799 3.96913 108.452 3.87992 108.1 3.87999C107.896 3.88254 107.694 3.91626 107.5 3.97999L107.14 4.03999C106.418 4.19101 105.724 4.45063 105.08 4.80999C104.485 5.14077 103.931 5.54016 103.43 5.99999C103.18 6.24999 102.96 6.49999 102.74 6.75999L102.43 7.16999C102.34 7.30999 102.24 7.43999 102.15 7.59999C102.06 7.75999 101.98 7.86999 101.9 7.99999L101.66 8.47999C101.59 8.62999 101.52 8.78999 101.46 8.93999C101.4 9.08999 101.34 9.25999 101.28 9.41999C101.22 9.57999 101.16 9.79999 101.12 9.98999C100.831 9.33715 100.578 8.66956 100.36 7.98999C99.6498 5.33999 100.81 4.62999 100.81 4.62999C101.091 4.37844 101.316 4.07013 101.469 3.72539C101.623 3.38066 101.701 3.00732 101.7 2.62999C101.7 1.92982 101.422 1.25832 100.927 0.763228C100.431 0.268132 99.7599 -0.0100098 99.0598 -0.0100098C98.3596 -0.0100098 97.6881 0.268132 97.193 0.763228C96.6979 1.25832 96.4198 1.92982 96.4198 2.62999C96.4184 3.00732 96.497 3.38066 96.6504 3.72539C96.8038 4.07013 97.0285 4.37844 97.3098 4.62999C97.3098 4.62999 98.4698 5.33999 97.7598 7.98999C97.5421 8.67294 97.2884 9.34389 96.9998 9.99999C96.9998 9.80999 96.8998 9.61999 96.8398 9.42999C96.7798 9.23999 96.7298 9.10999 96.6598 8.94999C96.5898 8.78999 96.5298 8.63999 96.4598 8.48999L96.2198 7.99999C96.1398 7.86999 96.0798 7.75999 95.9698 7.59999C95.8813 7.45133 95.7844 7.30777 95.6798 7.16999C95.5798 7.02999 95.4898 6.89999 95.3798 6.75999C95.2698 6.61999 94.9298 6.24999 94.6798 5.99999C94.175 5.51096 93.6106 5.08762 92.9998 4.73999C92.3511 4.39011 91.6532 4.14061 90.9298 3.99999C90.8098 3.99999 90.6898 3.99999 90.5698 3.93999C90.376 3.87626 90.1737 3.84254 89.9698 3.83999C89.6136 3.83639 89.2624 3.92344 88.9491 4.09294C88.6359 4.26245 88.3709 4.50885 88.1791 4.80896C87.9873 5.10907 87.8749 5.45304 87.8527 5.80852C87.8304 6.164 87.8989 6.5193 88.0517 6.84102C88.2046 7.16273 88.4367 7.44029 88.7263 7.64758C89.016 7.85487 89.3536 7.98509 89.7074 8.02599C90.0612 8.06689 90.4196 8.01713 90.7489 7.88138C91.0782 7.74563 91.3676 7.52835 91.5898 7.24999C91.8541 7.46801 92.0954 7.71263 92.3098 7.97999C92.4553 8.15767 92.5889 8.34474 92.7098 8.53999C92.7798 8.63999 92.8298 8.73999 92.8898 8.83999C92.9498 8.93999 92.9998 8.99999 92.9998 9.10999C92.9998 9.21999 93.1098 9.33999 93.1598 9.44999C93.1553 9.47647 93.1553 9.50351 93.1598 9.52999C93.1858 9.57739 93.2059 9.62775 93.2198 9.67999L93.3198 9.97999C93.3198 10.08 93.3798 10.19 93.3998 10.29C93.4973 10.7066 93.5509 11.1322 93.5598 11.56C93.5726 12.3915 93.4475 13.2194 93.1898 14.01L93.1298 14.17C92.3298 16 90.1098 18 87.3998 17.59C84.0398 17.08 83.3998 15.74 82.5898 14.33C82.0823 13.2553 81.8783 12.0623 81.9998 10.88C81.9998 10.88 81.9998 10.88 81.9998 10.83C81.9998 10.78 81.9998 10.67 81.9998 10.67C82.0056 10.38 81.9238 10.0951 81.765 9.85242C81.6062 9.60976 81.3778 9.4207 81.1098 9.30999L75.6498 6.99999C74.5498 6.47999 72.7498 5.64999 70.7598 4.78999C70.582 4.71297 70.3841 4.69536 70.1956 4.73978C70.007 4.78421 69.8378 4.88829 69.7131 5.03656C69.5884 5.18484 69.5149 5.36938 69.5035 5.56277C69.4921 5.75617 69.5434 5.94808 69.6498 6.10999C71.3498 8.72999 72.9898 11.3967 74.5698 14.11C77.0698 18.48 79.1398 22.57 81.3098 27.11C81.4998 27.5133 81.835 27.83 82.2485 27.9968C82.6619 28.1637 83.123 28.1684 83.5398 28.01C88.5178 26.2293 93.7731 25.3489 99.0598 25.41C104.328 25.3129 109.572 26.1631 114.54 27.92C114.957 28.0784 115.418 28.0737 115.831 27.9068C116.244 27.74 116.58 27.4233 116.77 27.02C118.95 22.51 121.05 18.52 123.55 14.15C125.13 11.4833 126.77 8.83332 128.47 6.19999C128.576 6.03808 128.627 5.84617 128.616 5.65277C128.605 5.45938 128.531 5.27484 128.406 5.12656C128.282 4.97829 128.113 4.87421 127.924 4.82978C127.735 4.78536 127.538 4.80297 127.36 4.87999M97.2198 21.12C97.5598 21.47 97.5998 21.86 97.3198 22.12C97.0398 22.38 96.6698 22.37 96.3198 22.02L93.5398 19.24C93.4598 19.16 93.3998 19.07 93.3098 18.96C94.3798 17.89 95.4198 16.83 96.4798 15.8C96.5323 15.7404 96.597 15.6927 96.6694 15.66C96.7418 15.6273 96.8203 15.6104 96.8998 15.6104C96.9792 15.6104 97.0578 15.6273 97.1302 15.66C97.2026 15.6927 97.2672 15.7404 97.3198 15.8C97.3766 15.8542 97.4219 15.9193 97.4529 15.9915C97.4838 16.0637 97.4998 16.1414 97.4998 16.22C97.4998 16.2985 97.4838 16.3763 97.4529 16.4485C97.4219 16.5207 97.3766 16.5858 97.3198 16.64C97.2168 16.7663 97.103 16.8834 96.9798 16.99C96.3598 17.62 95.7298 18.25 95.0498 18.92C95.7898 19.67 96.4898 20.36 97.1798 21.05M104.54 19.19L101.81 22C101.45 22.35 101.08 22.38 100.81 22.1C100.54 21.82 100.57 21.43 100.91 21.1C101.6 20.41 102.3 19.72 103.04 18.97C102.36 18.3 101.73 17.67 101.11 17.04C100.987 16.9334 100.873 16.8163 100.77 16.69C100.713 16.6358 100.668 16.5707 100.637 16.4985C100.606 16.4263 100.59 16.3485 100.59 16.27C100.59 16.1914 100.606 16.1137 100.637 16.0415C100.668 15.9693 100.713 15.9042 100.77 15.85C100.822 15.7904 100.887 15.7427 100.959 15.71C101.032 15.6773 101.11 15.6604 101.19 15.6604C101.269 15.6604 101.348 15.6773 101.42 15.71C101.493 15.7427 101.557 15.7904 101.61 15.85C102.67 16.85 103.71 17.94 104.78 19.01C104.69 19.12 104.62 19.21 104.54 19.29" fill="#222D5D"/>
</g>
<defs>
<clipPath id="clip0_1367_1456">
<rect width="200" height="176" fill="white"/>
</clipPath>
</defs>
</svg>
